<svg width="50" height="50" viewBox="0 0 50 50" fill="none" xmlns="http://www.w3.org/2000/svg">
<g clip-path="url(#clip0)">
<path d="M38.1316 20.1325C38.1316 17.5646 36.5821 14.7941 33.88 12.5314C31.315 10.3834 28.1649 9.10107 25.4532 9.10107C20.0346 9.10107 12.7749 14.5552 12.7749 20.1327C12.7749 21.8913 15.1189 25.2702 15.617 25.9679C16.7618 27.7168 18.3028 30.7908 17.9922 31.8673C17.1156 34.9021 17.113 37.2185 17.9842 38.7515C18.6955 40.0037 19.7219 40.2446 19.8365 40.2678C19.8848 40.2777 19.9333 40.2826 19.9824 40.2826H30.9238C30.9687 40.2826 31.0136 40.2785 31.0578 40.2703C31.1727 40.249 32.2016 40.0253 32.9184 38.7863C33.8004 37.262 33.7989 34.9342 32.9143 31.8676C32.6008 30.781 34.1118 27.7688 35.2895 25.9673C35.7881 25.2688 38.1316 21.8908 38.1316 20.1325ZM34.0266 25.0167C33.4805 25.8491 30.7893 30.1156 31.433 32.3474C32.3509 35.5289 32.0444 37.1112 31.6256 37.8784C31.3336 38.4132 30.9584 38.5911 30.8231 38.6401H20.0857C19.9633 38.5925 19.6016 38.4151 19.3111 37.9044C18.875 37.1364 18.5489 35.5492 19.4732 32.3476C20.1177 30.1159 17.4259 25.8491 16.8798 25.0167C16.8739 25.0074 16.8674 24.9984 16.8612 24.9894C15.8075 23.5157 14.3239 21.0346 14.3239 20.1325C14.3239 15.5991 20.8557 10.743 25.453 10.743C30.5497 10.743 36.5821 15.8326 36.5821 20.1325C36.5821 21.0332 35.0984 23.5146 34.0447 24.9894C34.0388 24.9981 34.0323 25.0074 34.0266 25.0167Z" fill="#0F0049"/>
<path d="M24.4325 34.6875H22.8833V36.9086H24.4325V34.6875Z" fill="#0F0049"/>
<path d="M28.0248 34.6875H26.4756V36.9086H28.0248V34.6875Z" fill="#0F0049"/>
<path d="M27.2503 26.3301H23.6582V27.9723H27.2503V26.3301Z" fill="#0F0049"/>
<path d="M27.2503 29.6621H23.6582V31.3043H27.2503V29.6621Z" fill="#0F0049"/>
<path d="M17.5033 20.6727L20.5698 23.9233L21.6653 22.7621L18.5987 19.5115L17.5033 20.6727Z" fill="#0F0049"/>
<path d="M29.2441 22.762L30.3394 23.9233L33.4063 20.6732L32.311 19.5118L29.2441 22.762Z" fill="#0F0049"/>
<path d="M28.9721 17.1655H21.936V18.8078H28.9721V17.1655Z" fill="#0F0049"/>
<path d="M28.9721 13.8809H21.936V15.5231H28.9721V13.8809Z" fill="#0F0049"/>
</g>
<rect x="1" y="1" width="48" height="48" rx="24" stroke="#D9E8FF" stroke-width="2"/>
<defs>
<clipPath id="clip0">
<rect width="25.4545" height="31.8182" fill="white" transform="translate(12.7271 9.09082)"/>
</clipPath>
</defs>
</svg>
