<svg width="51" height="50" viewBox="0 0 51 50" fill="none" xmlns="http://www.w3.org/2000/svg">
<g clip-path="url(#clip0)">
<path d="M37.5873 36.124L35.8633 20.2732C35.8362 14.6173 31.407 10.0249 25.9666 10.0249C20.5262 10.0249 16.0969 14.6176 16.0701 20.2732L14.3458 36.124C14.317 36.3892 14.4026 36.6541 14.5799 36.847C14.7572 37.0402 15.0082 37.1431 15.263 37.1233C15.2809 37.1221 17.0441 37.0003 18.6321 37.0003C19.7513 37.0003 20.3077 37.0603 20.5775 37.111C21.9282 37.3636 24.5648 39.1444 25.4667 39.8095C25.6166 39.9196 25.7916 39.9751 25.9666 39.9751C26.1418 39.9751 26.3176 39.9193 26.4675 39.8083C27.3412 39.1618 29.8988 37.4251 31.2228 37.1587C31.5274 37.0975 32.172 37.0246 33.5138 37.0246C35.0573 37.0246 36.6606 37.1227 36.6764 37.1239C36.9298 37.1362 37.1794 37.0372 37.3553 36.8446C37.5311 36.652 37.6161 36.388 37.5873 36.124ZM33.5138 35.2246C32.3098 35.2246 31.4534 35.2792 30.8945 35.3917C29.3437 35.7037 27.0066 37.2511 25.9654 37.9822C24.8995 37.2364 22.4753 35.6374 20.883 35.3392C20.3829 35.2456 19.6464 35.2003 18.6315 35.2003C17.7564 35.2003 16.8487 35.2345 16.1788 35.2678L17.7936 20.4265C17.7973 20.3929 17.799 20.359 17.799 20.3254C17.799 15.6382 21.4627 11.8252 25.9663 11.8252C30.4696 11.8252 34.1335 15.6382 34.1335 20.3254C34.1335 20.3593 34.1355 20.3932 34.139 20.4265L35.7543 35.2759C35.1421 35.2501 34.3272 35.2246 33.5138 35.2246Z" fill="#0F0049"/>
<path d="M20.7779 21.4364C21.6335 21.4364 22.3272 20.7145 22.3272 19.8239C22.3272 18.9334 21.6335 18.2114 20.7779 18.2114C19.9222 18.2114 19.2285 18.9334 19.2285 19.8239C19.2285 20.7145 19.9222 21.4364 20.7779 21.4364Z" fill="#0F0049"/>
<path d="M31.1548 21.4364C32.0105 21.4364 32.7041 20.7145 32.7041 19.8239C32.7041 18.9334 32.0105 18.2114 31.1548 18.2114C30.2991 18.2114 29.6055 18.9334 29.6055 19.8239C29.6055 20.7145 30.2991 21.4364 31.1548 21.4364Z" fill="#0F0049"/>
<path d="M25.9666 32.5491L29.8256 22.1484H22.1069L25.9666 32.5491ZM25.9666 27.5529L24.6291 23.9484H27.304L25.9666 27.5529Z" fill="#0F0049"/>
</g>
<rect x="1.5" y="1" width="48" height="48" rx="24" stroke="#609FFF" stroke-width="2"/>
<defs>
<clipPath id="clip0">
<rect width="23.6364" height="30" fill="white" transform="translate(14.1362 10)"/>
</clipPath>
</defs>
</svg>
