<svg width="50" height="50" viewBox="0 0 50 50" fill="none" xmlns="http://www.w3.org/2000/svg">
<g clip-path="url(#clip0)">
<path d="M38.9899 28.7087C38.878 26.7596 38.3598 22.8945 37.7157 21.0051C36.3265 16.9276 32.1833 10.0269 25.4651 10.0269C18.748 10.0269 14.604 16.9276 13.2146 21.0051C12.5699 22.8963 12.052 26.7606 11.9406 28.7089C11.7715 31.6695 12.8831 34.5582 15.071 36.8432C17.5288 39.4102 20.9795 40.8824 24.5386 40.8824H26.3922C29.9508 40.8824 33.4015 39.4102 35.8593 36.8432C38.0472 34.558 39.1591 31.6695 38.9899 28.7087ZM34.7581 35.8158C32.6169 38.0517 29.4896 39.3865 26.3919 39.3865H24.5384C21.4407 39.3865 18.3129 38.0517 16.172 35.8155C14.2732 33.8326 13.3078 31.3387 13.4533 28.7929C13.5626 26.8868 14.071 23.1829 14.6508 21.4814C15.8247 18.0368 19.5957 11.5222 25.4654 11.5222C31.3361 11.5222 35.1063 18.0368 36.2798 21.4817C36.8593 23.1814 37.3682 26.8858 37.4775 28.7929C37.6227 31.3387 36.6571 33.8328 34.7581 35.8158Z" fill="#0F0049"/>
<path d="M29.5193 19.1943C28.0261 19.1943 26.611 19.6901 25.465 20.6034C24.319 19.6901 22.9039 19.1943 21.4105 19.1943C17.8415 19.1943 14.938 22.0604 14.938 25.5833C14.938 27.9254 16.2084 30.029 18.2372 31.1494C18.0271 31.6193 17.9185 32.1116 17.9185 32.6051C17.9185 35.4144 21.2332 37.6147 25.465 37.6147C29.6968 37.6147 33.0112 35.4144 33.0112 32.6051C33.0112 32.1116 32.9024 31.619 32.6925 31.1494C34.7213 30.029 35.9915 27.9252 35.9915 25.5833C35.9918 22.0604 33.0882 19.1943 29.5193 19.1943ZM31.3506 30.1272L30.4453 30.4829L31.0178 31.2613C31.3352 31.6928 31.4963 32.145 31.4963 32.6051C31.4963 34.51 28.7342 36.1191 25.4653 36.1191C22.1961 36.1191 19.4339 34.51 19.4339 32.6051C19.4339 32.1452 19.5951 31.6933 19.9127 31.2613L20.4852 30.4829L19.5802 30.1272C17.6809 29.3809 16.4539 27.5971 16.4539 25.5833C16.4539 22.8852 18.6776 20.6899 21.4112 20.6899C22.741 20.6899 23.99 21.2037 24.9281 22.1362L25.4658 22.6709L26.0034 22.1362C26.9415 21.2037 28.1903 20.6899 29.5201 20.6899C32.2534 20.6899 34.4774 22.8852 34.4774 25.5833C34.4766 27.5971 33.2496 29.3809 31.3506 30.1272Z" fill="#0F0049"/>
<path d="M20.9193 26.3207C21.669 26.3207 22.2767 25.7209 22.2767 24.9809C22.2767 24.241 21.669 23.6411 20.9193 23.6411C20.1697 23.6411 19.562 24.241 19.562 24.9809C19.562 25.7209 20.1697 26.3207 20.9193 26.3207Z" fill="#0F0049"/>
<path d="M30.0106 26.3207C30.7603 26.3207 31.368 25.7209 31.368 24.9809C31.368 24.241 30.7603 23.6411 30.0106 23.6411C29.261 23.6411 28.6533 24.241 28.6533 24.9809C28.6533 25.7209 29.261 26.3207 30.0106 26.3207Z" fill="#0F0049"/>
<path d="M24.8994 29.0073H23.3843V31.0236H24.8994V29.0073Z" fill="#0F0049"/>
<path d="M27.5454 29.0073H26.0303V31.0236H27.5454V29.0073Z" fill="#0F0049"/>
</g>
<rect x="1" y="1" width="48" height="48" rx="24" stroke="#D9E8FF" stroke-width="2"/>
<defs>
<clipPath id="clip0">
<rect width="27.2727" height="30.9091" fill="white" transform="translate(11.8184 10)"/>
</clipPath>
</defs>
</svg>
