<svg width="51" height="50" viewBox="0 0 51 50" fill="none" xmlns="http://www.w3.org/2000/svg">
<g clip-path="url(#clip0)">
<path d="M39.6708 15.6398C38.893 14.8719 37.8629 14.449 36.7703 14.449C35.6566 14.449 34.6128 14.886 33.8306 15.6792L32.9467 16.5759C30.6805 15.0849 28.1552 14.3003 25.6035 14.3003C23.0517 14.3003 20.5264 15.0849 18.2604 16.5759L17.3762 15.6792C16.594 14.886 15.55 14.4493 14.4366 14.4493C13.3441 14.4493 12.3141 14.8721 11.5363 15.6403C9.91596 17.2407 9.89856 19.8624 11.4974 21.4846L12.8019 22.8077C11.9865 24.511 11.5578 26.2718 11.5578 27.9316C11.5578 33.8129 16.9399 37.4665 25.6038 37.4665C34.2675 37.4665 39.6496 33.8129 39.6496 27.9316C39.6496 26.2721 39.2206 24.5115 38.4049 22.8077L39.7099 21.4846C41.3085 19.8624 41.2911 17.2407 39.6708 15.6398ZM38.6167 20.4056L36.9253 22.1212C36.6902 22.3597 36.6368 22.723 36.793 23.0191C37.6576 24.6574 38.1144 26.3561 38.1144 27.9314C38.1144 33.8291 31.6514 35.9304 25.6033 35.9304C19.5549 35.9304 13.0919 33.8291 13.0919 27.9314C13.0919 26.3558 13.5488 24.6569 14.413 23.0191C14.5693 22.723 14.5156 22.3595 14.2808 22.1212L12.5896 20.4056C11.5849 19.3863 11.5959 17.7388 12.6139 16.7334C13.1027 16.2508 13.7498 15.9849 14.4363 15.9849C15.1361 15.9849 15.7922 16.2595 16.2838 16.7579L17.6197 18.1128C17.8855 18.3824 18.3078 18.4174 18.6147 18.1963C20.7535 16.6522 23.1701 15.8362 25.6035 15.8362C28.0365 15.8362 30.4531 16.6522 32.5921 18.1963C32.8988 18.4177 33.3216 18.3824 33.5874 18.1128L34.9233 16.7579C35.4146 16.2595 36.0707 15.9849 36.7705 15.9849C37.4573 15.9849 38.1044 16.2508 38.5929 16.7331C39.6109 17.7391 39.6217 19.3863 38.6167 20.4056Z" fill="#0F0049"/>
<path d="M15.8632 24.3587C14.3897 25.8334 14.1063 27.9403 15.2302 29.0648C16.3538 30.1898 18.4591 29.906 19.9326 28.4313C21.4059 26.9569 21.6893 24.8499 20.5657 23.7251C19.4418 22.6006 17.3365 22.8842 15.8632 24.3587ZM17.6741 27.8349C16.9147 27.8349 16.2993 27.219 16.2993 26.459C16.2993 25.699 16.9147 25.0831 17.6741 25.0831C18.4335 25.0831 19.0489 25.699 19.0489 26.459C19.0489 27.219 18.4335 27.8349 17.6741 27.8349Z" fill="#0F0049"/>
<path d="M30.6413 23.7251C29.5172 24.8499 29.8011 26.9569 31.2744 28.4313C32.7476 29.906 34.8532 30.1896 35.9768 29.0648C37.101 27.9403 36.817 25.8334 35.3438 24.3587C33.8705 22.8842 31.7647 22.6006 30.6413 23.7251ZM33.5329 27.8349C32.7735 27.8349 32.1581 27.219 32.1581 26.459C32.1581 25.699 32.7735 25.0831 33.5329 25.0831C34.2923 25.0831 34.9077 25.699 34.9077 26.459C34.9077 27.219 34.292 27.8349 33.5329 27.8349Z" fill="#0F0049"/>
<path d="M27.0412 29.5385C27.3888 29.4653 27.6497 29.1574 27.6497 28.7875C27.6497 28.3633 27.3062 28.0195 26.8824 28.0195H24.3246C23.9008 28.0195 23.5573 28.3633 23.5573 28.7875C23.5573 29.1571 23.8182 29.465 24.1655 29.5385L22.9206 30.7843C22.6209 31.0841 22.6209 31.5705 22.9206 31.8702C23.0705 32.0202 23.267 32.0952 23.4631 32.0952C23.6593 32.0952 23.8558 32.0202 24.0056 31.8702L25.6032 30.2714L27.2008 31.8702C27.3507 32.0202 27.5471 32.0952 27.7433 32.0952C27.9395 32.0952 28.1359 32.0202 28.2858 31.8702C28.5856 31.5705 28.5856 31.0841 28.2858 30.7843L27.0412 29.5385Z" fill="#0F0049"/>
</g>
<rect x="1.5" y="1" width="48" height="48" rx="24" stroke="#D9E8FF" stroke-width="2"/>
<defs>
<clipPath id="clip0">
<rect width="30.7018" height="23.6842" fill="white" transform="translate(10.1489 14.0352)"/>
</clipPath>
</defs>
</svg>
